<svg xmlns="http://www.w3.org/2000/svg" viewBox="0 0 1200 630" width="1200" height="630" role="img" aria-label="Babu8 Open Graph image">
  <defs>
    <linearGradient id="bg" x1="0%" y1="0%" x2="100%" y2="100%">
      <stop offset="0%" stop-color="#0F0720"/>
      <stop offset="50%" stop-color="#2E1065"/>
      <stop offset="100%" stop-color="#4C1D95"/>
    </linearGradient>
    <linearGradient id="accent" x1="0%" y1="0%" x2="100%" y2="0%">
      <stop offset="0%" stop-color="#F59E0B"/>
      <stop offset="100%" stop-color="#F97316"/>
    </linearGradient>
  </defs>
  <rect width="1200" height="630" fill="url(#bg)"/>
  <!-- subtle grid pattern -->
  <pattern id="grid" width="40" height="40" patternUnits="userSpaceOnUse">
    <circle cx="20" cy="20" r="1.5" fill="#FFFFFF" opacity="0.06"/>
  </pattern>
  <rect width="1200" height="630" fill="url(#grid)"/>

  <!-- Icon badge -->
  <g transform="translate(160, 180) scale(2.5)">
    <path d="M20 2 L36 10 L36 30 L20 38 L4 30 L4 10 Z" fill="#5B21B6" stroke="#FBBF24" stroke-width="2" stroke-linejoin="round"/>
    <path d="M12 8 C18 16, 18 24, 12 32" fill="none" stroke="#FBBF24" stroke-width="2" stroke-linecap="round" opacity="0.8"/>
    <path d="M28 8 C22 16, 22 24, 28 32" fill="none" stroke="#FBBF24" stroke-width="2" stroke-linecap="round" opacity="0.8"/>
    <text x="20" y="28" text-anchor="middle" font-family="Arial, sans-serif" font-weight="900" font-size="22" fill="url(#accent)" style="font-style: italic">8</text>
  </g>

  <!-- Wordmark -->
  <text x="360" y="310" font-family="Arial, Helvetica, sans-serif" font-weight="900" font-size="120" fill="#FFFFFF" style="font-style: italic; letter-spacing: -4px">Babu</text>
  <text x="715" y="310" font-family="Arial, Helvetica, sans-serif" font-weight="900" font-size="120" fill="url(#accent)" style="font-style: italic; letter-spacing: -4px">8</text>

  <!-- Tagline -->
  <text x="360" y="390" font-family="Arial, Helvetica, sans-serif" font-weight="500" font-size="40" fill="#E5E7EB" style="letter-spacing: 1px">India's Trusted Cricket Exchange & Casino</text>

  <!-- URL -->
  <text x="360" y="480" font-family="Arial, Helvetica, sans-serif" font-weight="700" font-size="28" fill="#FBBF24">www.babu8.online</text>
</svg>
